<svg width="48" height="48" viewBox="0 0 48 48" xmlns="http://www.w3.org/2000/svg" role="img" aria-labelledby="openaiLogoTitle">
  <title id="openaiLogoTitle">OpenAI mark</title>
  <g fill="none" fill-rule="evenodd">
    <circle cx="24" cy="24" r="24" fill="#0B172A"/>
    <path d="M23.999 11.75c-3.602 0-6.854 2.04-8.443 5.189-3.329.424-5.956 3.184-5.956 6.598 0 2.078.977 4.009 2.629 5.248-.071.42-.106.833-.106 1.25 0 4.825 3.93 8.75 8.786 8.75 1.43 0 2.83-.34 4.089-.988.92.41 1.939.63 2.973.63 4.232 0 7.668-3.408 7.668-7.606 0-.573-.065-1.137-.194-1.684 1.655-1.244 2.633-3.182 2.633-5.271 0-3.413-2.627-6.173-5.956-6.597-1.588-3.149-4.84-5.191-8.443-5.191Zm-2.402 6.084 4.296 2.48V26.4l3.724 2.148-4.296 2.48-3.724-2.148v-6.486l-4.296-2.48 4.296-2.48Z" fill="#FFFFFF"/>
  </g>
</svg>
